<?xml version="1.0" encoding="UTF-8"?><svg id="b" xmlns="http://www.w3.org/2000/svg" viewBox="0 0 32 32"><defs><style>.c{fill:#002f6c;}</style></defs><path class="c" d="M14.65,19.96c-.18,0-.36-.06-.51-.19l-4.56-3.99c-.32-.28-.35-.76-.07-1.08.28-.32.77-.35,1.08-.07l3.99,3.49,6.74-7.37c.29-.31.77-.33,1.08-.05.31.29.33.77.05,1.08l-7.25,7.92c-.15.16-.36.25-.57.25Z"/><path class="c" d="M16,31.79c-.83,0-1.66-.27-2.34-.82l-8.29-6.7c-1.8-1.46-2.84-3.58-2.84-5.83v-10.29c0-1.31.8-2.53,2.04-3.1L14.31.56c.99-.45,2.13-.46,3.13,0l9.96,4.5c1.26.57,2.07,1.79,2.07,3.11v7.06c0,.42-.34.77-.77.77s-.77-.34-.77-.77v-7.06c0-.72-.46-1.4-1.17-1.72L16.81,1.95c-.58-.26-1.28-.26-1.86,0L5.21,6.44c-.71.33-1.15.98-1.15,1.71v10.29c0,1.78.83,3.47,2.27,4.63l8.29,6.7c.79.63,1.97.63,2.76,0l8.29-6.7c1.44-1.17,2.27-2.86,2.27-4.63,0-.42.34-.77.77-.77s.77.34.77.77c0,2.24-1.04,4.37-2.84,5.83l-8.29,6.7c-.68.55-1.51.82-2.34.82Z"/><path class="c" d="M16,27.94c-.66,0-1.33-.22-1.87-.65l-6.17-4.98c-1.39-1.12-2.19-2.76-2.19-4.49v-7.66c0-1.05.64-2.03,1.64-2.49l7.24-3.34c.79-.36,1.7-.37,2.49,0l7.41,3.35c1.01.46,1.65,1.44,1.65,2.5v7.64c0,1.73-.8,3.36-2.19,4.49l-6.17,4.98c-.54.44-1.2.66-1.87.66ZM15.92,5.6c-.21,0-.42.04-.61.13l-7.24,3.34c-.46.21-.74.63-.74,1.09v7.66c0,1.26.59,2.46,1.62,3.29l6.17,4.98c.51.41,1.29.41,1.8,0l6.17-4.98c1.03-.83,1.61-2.03,1.61-3.29v-7.64c0-.46-.29-.89-.75-1.1l-7.41-3.35c-.19-.08-.4-.13-.61-.13Z"/></svg>